# xmcd
#
# Track frame offsets:
#	150
#	14804
#	29150
#	52119
#	66855
#	86137
#	103365
#	116265
#	133699
#	147711
#	168468
#
# Disc length: 2434 seconds
#
# Revision: 1
# Processed by: cddbd v1.4PL0 Copyright (c) Steve Scherf et al.
# Submitted via: EasyCDDAExtractor 5.1.0
#
DISCID=b009800b
DTITLE=David Todoran - Luck in This Life
DYEAR=2003
DGENRE=Country
TTITLE0=Into the sky
TTITLE1=Good
TTITLE2=Drive all night
TTITLE3=Luck in this life
TTITLE4=In the end
TTITLE5=Cafe Novacento
TTITLE6=Our own half moon
TTITLE7=Three on a match
TTITLE8=Blue sky
TTITLE9=I do
TTITLE10=Glorious
EXTD=
EXTT0=
EXTT1=
EXTT2=
EXTT3=
EXTT4=
EXTT5=
EXTT6=
EXTT7=
EXTT8=
EXTT9=
EXTT10=
PLAYORDER=
